<svg width="128" height="67" viewBox="0 0 128 67" fill="none" xmlns="http://www.w3.org/2000/svg">
<path d="M1.08164 3.95093C1.08168 2.62584 2.34697 1.66726 3.62266 2.02587L64.5422 19.1508C64.901 19.2517 65.2809 19.2503 65.639 19.1468L124.784 2.0446C126.061 1.67536 127.337 2.63163 127.34 3.96096L127.497 64.4057C127.5 65.5103 126.607 66.4079 125.502 66.4106L3.08478 66.7128C1.97816 66.7155 1.07956 65.8191 1.07959 64.7125L1.08164 3.95093Z" fill="#F2F709"/>
<path d="M29.402 44.344H33.632V46H27.35V33.49H29.402V44.344ZM44.438 40.798C44.438 41.17 44.414 41.506 44.366 41.806H36.788C36.848 42.598 37.142 43.234 37.67 43.714C38.198 44.194 38.846 44.434 39.614 44.434C40.718 44.434 41.498 43.972 41.954 43.048H44.168C43.868 43.96 43.322 44.71 42.53 45.298C41.75 45.874 40.778 46.162 39.614 46.162C38.666 46.162 37.814 45.952 37.058 45.532C36.314 45.1 35.726 44.5 35.294 43.732C34.874 42.952 34.664 42.052 34.664 41.032C34.664 40.012 34.868 39.118 35.276 38.35C35.696 37.57 36.278 36.97 37.022 36.55C37.778 36.13 38.642 35.92 39.614 35.92C40.55 35.92 41.384 36.124 42.116 36.532C42.848 36.94 43.418 37.516 43.826 38.26C44.234 38.992 44.438 39.838 44.438 40.798ZM42.296 40.15C42.284 39.394 42.014 38.788 41.486 38.332C40.958 37.876 40.304 37.648 39.524 37.648C38.816 37.648 38.21 37.876 37.706 38.332C37.202 38.776 36.902 39.382 36.806 40.15H42.296ZM50.0574 46.162C49.2774 46.162 48.5754 46.024 47.9514 45.748C47.3394 45.46 46.8534 45.076 46.4934 44.596C46.1334 44.104 45.9414 43.558 45.9174 42.958H48.0414C48.0774 43.378 48.2754 43.732 48.6354 44.02C49.0074 44.296 49.4694 44.434 50.0214 44.434C50.5974 44.434 51.0414 44.326 51.3534 44.11C51.6774 43.882 51.8394 43.594 51.8394 43.246C51.8394 42.874 51.6594 42.598 51.2994 42.418C50.9514 42.238 50.3934 42.04 49.6254 41.824C48.8814 41.62 48.2754 41.422 47.8074 41.23C47.3394 41.038 46.9314 40.744 46.5834 40.348C46.2474 39.952 46.0794 39.43 46.0794 38.782C46.0794 38.254 46.2354 37.774 46.5474 37.342C46.8594 36.898 47.3034 36.55 47.8794 36.298C48.4674 36.046 49.1394 35.92 49.8954 35.92C51.0234 35.92 51.9294 36.208 52.6134 36.784C53.3094 37.348 53.6814 38.122 53.7294 39.106H51.6774C51.6414 38.662 51.4614 38.308 51.1374 38.044C50.8134 37.78 50.3754 37.648 49.8234 37.648C49.2834 37.648 48.8694 37.75 48.5814 37.954C48.2934 38.158 48.1494 38.428 48.1494 38.764C48.1494 39.028 48.2454 39.25 48.4374 39.43C48.6294 39.61 48.8634 39.754 49.1394 39.862C49.4154 39.958 49.8234 40.084 50.3634 40.24C51.0834 40.432 51.6714 40.63 52.1274 40.834C52.5954 41.026 52.9974 41.314 53.3334 41.698C53.6694 42.082 53.8434 42.592 53.8554 43.228C53.8554 43.792 53.6994 44.296 53.3874 44.74C53.0754 45.184 52.6314 45.532 52.0554 45.784C51.4914 46.036 50.8254 46.162 50.0574 46.162ZM58.4667 37.756V43.246C58.4667 43.618 58.5507 43.888 58.7187 44.056C58.8987 44.212 59.1987 44.29 59.6187 44.29H60.8787V46H59.2587C58.3347 46 57.6267 45.784 57.1347 45.352C56.6427 44.92 56.3967 44.218 56.3967 43.246V37.756H55.2267V36.082H56.3967V33.616H58.4667V36.082H60.8787V37.756H58.4667ZM75.5277 33.49V35.164H72.1977V46H70.1457V35.164H66.7977V33.49H75.5277ZM76.9219 40.996C76.9219 40 77.1259 39.118 77.5339 38.35C77.9539 37.582 78.5179 36.988 79.2259 36.568C79.9459 36.136 80.7379 35.92 81.6019 35.92C82.3819 35.92 83.0599 36.076 83.6359 36.388C84.2239 36.688 84.6919 37.066 85.0399 37.522V36.082H87.1099V46H85.0399V44.524C84.6919 44.992 84.2179 45.382 83.6179 45.694C83.0179 46.006 82.3339 46.162 81.5659 46.162C80.7139 46.162 79.9339 45.946 79.2259 45.514C78.5179 45.07 77.9539 44.458 77.5339 43.678C77.1259 42.886 76.9219 41.992 76.9219 40.996ZM85.0399 41.032C85.0399 40.348 84.8959 39.754 84.6079 39.25C84.3319 38.746 83.9659 38.362 83.5099 38.098C83.0539 37.834 82.5619 37.702 82.0339 37.702C81.5059 37.702 81.0139 37.834 80.5579 38.098C80.1019 38.35 79.7299 38.728 79.4419 39.232C79.1659 39.724 79.0279 40.312 79.0279 40.996C79.0279 41.68 79.1659 42.28 79.4419 42.796C79.7299 43.312 80.1019 43.708 80.5579 43.984C81.0259 44.248 81.5179 44.38 82.0339 44.38C82.5619 44.38 83.0539 44.248 83.5099 43.984C83.9659 43.72 84.3319 43.336 84.6079 42.832C84.8959 42.316 85.0399 41.716 85.0399 41.032ZM91.8571 32.68V46H89.8051V32.68H91.8571ZM98.4752 41.05L103.047 46H100.275L96.6032 41.734V46H94.5512V32.68H96.6032V40.42L100.203 36.082H103.047L98.4752 41.05Z" fill="black"/>
<path d="M1 1H126.988" stroke="#F2F709"/>
</svg>
