<svg width="34" height="37" viewBox="0 0 34 37" fill="none" xmlns="http://www.w3.org/2000/svg">
<g clip-path="url(#clip0_70_32)">
<path d="M10.8609 15.7816L8.27247 15.7853C7.83486 15.786 7.41535 15.9051 7.10621 16.1165C6.79708 16.3279 6.62365 16.6143 6.62407 16.9127L6.62728 19.1627C6.62771 19.4611 6.80196 19.747 7.11169 19.9575C7.42143 20.168 7.84128 20.286 8.27889 20.2853L9.92889 20.283L9.92944 20.669C9.93385 23.7627 9.51119 26.7587 7.46673 29.2865L25.6167 29.2606C23.562 26.7386 23.1338 23.7439 23.1294 20.6502L23.1289 20.2641L24.7789 20.2618C25.2165 20.2612 25.636 20.142 25.9451 19.9306C26.2543 19.7192 26.4277 19.4328 26.4273 19.1344L26.4241 16.8844C26.4236 16.5861 26.2494 16.3002 25.9396 16.0896C25.6299 15.8791 25.2101 15.7612 24.7724 15.7618L22.184 15.7655C25.213 14.4688 27.2424 12.1878 27.2386 9.57076C27.2359 7.63137 26.1032 5.77302 24.09 4.40453C22.0767 3.03605 19.3476 2.26952 16.5032 2.27358C13.6588 2.27763 10.9319 3.05195 8.92254 4.42618C6.91317 5.8004 5.78587 7.66198 5.78864 9.60137C5.79237 12.2184 7.82822 14.4936 10.8609 15.7816ZM31.3949 31.5024L1.69495 31.5447C1.25734 31.5454 0.837825 31.6645 0.528692 31.8759C0.219558 32.0873 0.0461277 32.3737 0.0465534 32.6721L0.0497639 34.9221C0.0501896 35.2205 0.224437 35.5064 0.534172 35.7169C0.843908 35.9274 1.26376 36.0454 1.70137 36.0447L31.4013 36.0024C31.8389 36.0017 32.2585 35.8826 32.5676 35.6712C32.8767 35.4598 33.0502 35.1734 33.0497 34.875L33.0465 32.625C33.0461 32.3266 32.8718 32.0407 32.5621 31.8302C32.2524 31.6197 31.8325 31.5017 31.3949 31.5024Z" fill="#F2F709"/>
</g>
<defs>
<clipPath id="clip0_70_32">
<rect width="33" height="36" fill="white" transform="translate(0 0.0471191) rotate(-0.0817542)"/>
</clipPath>
</defs>
</svg>
