<svg width="49" height="50" viewBox="0 0 49 50" fill="none" xmlns="http://www.w3.org/2000/svg">
<g clip-path="url(#clip0_70_32)">
<path d="M21.2277 19.9012L19.1217 18.3962C18.7657 18.1418 18.3553 17.9942 17.9809 17.9859C17.6065 17.9776 17.2987 18.1094 17.1252 18.3521L15.817 20.1827C15.6435 20.4255 15.6185 20.7594 15.7476 21.1109C15.8767 21.4625 16.1492 21.8029 16.5053 22.0574L17.8477 23.0167L17.6233 23.3308C15.8245 25.8479 13.7356 28.0366 10.6012 28.9001L25.368 39.453C25.1672 36.2062 26.5639 33.5227 28.3627 31.0057L28.5872 30.6916L29.9296 31.651C30.2857 31.9054 30.696 32.053 31.0704 32.0613C31.4449 32.0695 31.7527 31.9378 31.9262 31.695L33.2344 29.8645C33.4079 29.6217 33.4328 29.2878 33.3037 28.9362C33.1746 28.5847 32.9021 28.2442 32.5461 27.9898L30.4401 26.4848C33.6574 27.1956 36.6357 26.5239 38.1573 24.3947C39.2849 22.8168 39.447 20.6466 38.608 18.3614C37.7689 16.0762 35.9974 13.8633 33.6832 12.2094C31.369 10.5556 28.7016 9.5963 26.2678 9.54259C23.8341 9.48887 21.8333 10.3451 20.7057 11.923C19.184 14.0522 19.5132 17.0875 21.2277 19.9012ZM28.7583 44.6414L4.59445 27.3729C4.23842 27.1185 3.82805 26.9709 3.45363 26.9626C3.0792 26.9543 2.77139 27.0861 2.59791 27.3288L1.28969 29.1594C1.11621 29.4022 1.09127 29.7361 1.22036 30.0876C1.34944 30.4392 1.62198 30.7796 1.97802 31.0341L26.1418 48.3026C26.4979 48.557 26.9082 48.7046 27.2827 48.7128C27.6571 48.7211 27.9649 48.5894 28.1384 48.3466L29.4466 46.516C29.6201 46.2733 29.645 45.9394 29.5159 45.5878C29.3868 45.2363 29.1143 44.8958 28.7583 44.6414Z" fill="#F2F709"/>
</g>
<defs>
<clipPath id="clip0_70_32">
<rect width="33" height="36" fill="white" transform="translate(21.5671 0.785278) rotate(35.5512)"/>
</clipPath>
</defs>
</svg>
