<svg width="115" height="30" viewBox="0 0 115 30" fill="none" xmlns="http://www.w3.org/2000/svg">
<rect width="115" height="30" rx="7" fill="#202331"/>
<rect x="0.5" y="0.5" width="114" height="29" rx="6.5" stroke="#E5E5E5" stroke-opacity="0.7"/>
<path d="M33 17V21C33 21.5304 32.7893 22.0391 32.4142 22.4142C32.0391 22.7893 31.5304 23 31 23H17C16.4696 23 15.9609 22.7893 15.5858 22.4142C15.2107 22.0391 15 21.5304 15 21V17" stroke="#E5E5E5" stroke-opacity="0.7" stroke-width="2" stroke-linecap="round" stroke-linejoin="round"/>
<path d="M19 12L24 17L29 12" stroke="#E5E5E5" stroke-opacity="0.7" stroke-width="2" stroke-linecap="round" stroke-linejoin="round"/>
<path d="M24 17V5" stroke="#E5E5E5" stroke-opacity="0.7" stroke-width="2" stroke-linecap="round" stroke-linejoin="round"/>
<path d="M41.37 17.22C41.37 16.6667 41.4833 16.1767 41.71 15.75C41.9433 15.3233 42.2567 14.9933 42.65 14.76C43.05 14.52 43.4933 14.4 43.98 14.4C44.34 14.4 44.6933 14.48 45.04 14.64C45.3933 14.7933 45.6733 15 45.88 15.26V12.6H47.03V20H45.88V19.17C45.6933 19.4367 45.4333 19.6567 45.1 19.83C44.7733 20.0033 44.3967 20.09 43.97 20.09C43.49 20.09 43.05 19.97 42.65 19.73C42.2567 19.4833 41.9433 19.1433 41.71 18.71C41.4833 18.27 41.37 17.7733 41.37 17.22ZM45.88 17.24C45.88 16.86 45.8 16.53 45.64 16.25C45.4867 15.97 45.2833 15.7567 45.03 15.61C44.7767 15.4633 44.5033 15.39 44.21 15.39C43.9167 15.39 43.6433 15.4633 43.39 15.61C43.1367 15.75 42.93 15.96 42.77 16.24C42.6167 16.5133 42.54 16.84 42.54 17.22C42.54 17.6 42.6167 17.9333 42.77 18.22C42.93 18.5067 43.1367 18.7267 43.39 18.88C43.65 19.0267 43.9233 19.1 44.21 19.1C44.5033 19.1 44.7767 19.0267 45.03 18.88C45.2833 18.7333 45.4867 18.52 45.64 18.24C45.8 17.9533 45.88 17.62 45.88 17.24ZM50.9173 20.09C50.3973 20.09 49.9273 19.9733 49.5073 19.74C49.0873 19.5 48.7573 19.1667 48.5173 18.74C48.2773 18.3067 48.1573 17.8067 48.1573 17.24C48.1573 16.68 48.2807 16.1833 48.5273 15.75C48.774 15.3167 49.1107 14.9833 49.5373 14.75C49.964 14.5167 50.4407 14.4 50.9673 14.4C51.494 14.4 51.9707 14.5167 52.3973 14.75C52.824 14.9833 53.1607 15.3167 53.4073 15.75C53.654 16.1833 53.7773 16.68 53.7773 17.24C53.7773 17.8 53.6507 18.2967 53.3973 18.73C53.144 19.1633 52.7973 19.5 52.3573 19.74C51.924 19.9733 51.444 20.09 50.9173 20.09ZM50.9173 19.1C51.2107 19.1 51.484 19.03 51.7373 18.89C51.9973 18.75 52.2073 18.54 52.3673 18.26C52.5273 17.98 52.6073 17.64 52.6073 17.24C52.6073 16.84 52.5307 16.5033 52.3773 16.23C52.224 15.95 52.0207 15.74 51.7673 15.6C51.514 15.46 51.2407 15.39 50.9473 15.39C50.654 15.39 50.3807 15.46 50.1273 15.6C49.8807 15.74 49.684 15.95 49.5373 16.23C49.3907 16.5033 49.3173 16.84 49.3173 17.24C49.3173 17.8333 49.4673 18.2933 49.7673 18.62C50.074 18.94 50.4573 19.1 50.9173 19.1ZM62.3043 14.49L60.5943 20H59.3943L58.2843 15.93L57.1743 20H55.9743L54.2543 14.49H55.4143L56.5643 18.92L57.7343 14.49H58.9243L60.0443 18.9L61.1843 14.49H62.3043ZM65.9363 14.4C66.3696 14.4 66.7563 14.49 67.0963 14.67C67.4429 14.85 67.7129 15.1167 67.9063 15.47C68.0996 15.8233 68.1963 16.25 68.1963 16.75V20H67.0663V16.92C67.0663 16.4267 66.9429 16.05 66.6963 15.79C66.4496 15.5233 66.1129 15.39 65.6863 15.39C65.2596 15.39 64.9196 15.5233 64.6663 15.79C64.4196 16.05 64.2963 16.4267 64.2963 16.92V20H63.1563V14.49H64.2963V15.12C64.4829 14.8933 64.7196 14.7167 65.0063 14.59C65.2996 14.4633 65.6096 14.4 65.9363 14.4ZM70.7904 12.6V20H69.6504V12.6H70.7904ZM74.6771 20.09C74.1571 20.09 73.6871 19.9733 73.2671 19.74C72.8471 19.5 72.5171 19.1667 72.2771 18.74C72.0371 18.3067 71.9171 17.8067 71.9171 17.24C71.9171 16.68 72.0404 16.1833 72.2871 15.75C72.5338 15.3167 72.8704 14.9833 73.2971 14.75C73.7238 14.5167 74.2004 14.4 74.7271 14.4C75.2538 14.4 75.7304 14.5167 76.1571 14.75C76.5838 14.9833 76.9204 15.3167 77.1671 15.75C77.4138 16.1833 77.5371 16.68 77.5371 17.24C77.5371 17.8 77.4104 18.2967 77.1571 18.73C76.9038 19.1633 76.5571 19.5 76.1171 19.74C75.6838 19.9733 75.2038 20.09 74.6771 20.09ZM74.6771 19.1C74.9704 19.1 75.2438 19.03 75.4971 18.89C75.7571 18.75 75.9671 18.54 76.1271 18.26C76.2871 17.98 76.3671 17.64 76.3671 17.24C76.3671 16.84 76.2904 16.5033 76.1371 16.23C75.9838 15.95 75.7804 15.74 75.5271 15.6C75.2738 15.46 75.0004 15.39 74.7071 15.39C74.4138 15.39 74.1404 15.46 73.8871 15.6C73.6404 15.74 73.4438 15.95 73.2971 16.23C73.1504 16.5033 73.0771 16.84 73.0771 17.24C73.0771 17.8333 73.2271 18.2933 73.5271 18.62C73.8338 18.94 74.2171 19.1 74.6771 19.1ZM78.2841 17.22C78.2841 16.6667 78.3974 16.1767 78.6241 15.75C78.8574 15.3233 79.1707 14.9933 79.5641 14.76C79.9641 14.52 80.4041 14.4 80.8841 14.4C81.3174 14.4 81.6941 14.4867 82.0141 14.66C82.3407 14.8267 82.6007 15.0367 82.7941 15.29V14.49H83.9441V20H82.7941V19.18C82.6007 19.44 82.3374 19.6567 82.0041 19.83C81.6707 20.0033 81.2907 20.09 80.8641 20.09C80.3907 20.09 79.9574 19.97 79.5641 19.73C79.1707 19.4833 78.8574 19.1433 78.6241 18.71C78.3974 18.27 78.2841 17.7733 78.2841 17.22ZM82.7941 17.24C82.7941 16.86 82.7141 16.53 82.5541 16.25C82.4007 15.97 82.1974 15.7567 81.9441 15.61C81.6907 15.4633 81.4174 15.39 81.1241 15.39C80.8307 15.39 80.5574 15.4633 80.3041 15.61C80.0507 15.75 79.8441 15.96 79.6841 16.24C79.5307 16.5133 79.4541 16.84 79.4541 17.22C79.4541 17.6 79.5307 17.9333 79.6841 18.22C79.8441 18.5067 80.0507 18.7267 80.3041 18.88C80.5641 19.0267 80.8374 19.1 81.1241 19.1C81.4174 19.1 81.6907 19.0267 81.9441 18.88C82.1974 18.7333 82.4007 18.52 82.5541 18.24C82.7141 17.9533 82.7941 17.62 82.7941 17.24ZM85.0614 17.22C85.0614 16.6667 85.1747 16.1767 85.4014 15.75C85.6347 15.3233 85.9481 14.9933 86.3414 14.76C86.7414 14.52 87.1847 14.4 87.6714 14.4C88.0314 14.4 88.3847 14.48 88.7314 14.64C89.0847 14.7933 89.3647 15 89.5714 15.26V12.6H90.7214V20H89.5714V19.17C89.3847 19.4367 89.1247 19.6567 88.7914 19.83C88.4647 20.0033 88.0881 20.09 87.6614 20.09C87.1814 20.09 86.7414 19.97 86.3414 19.73C85.9481 19.4833 85.6347 19.1433 85.4014 18.71C85.1747 18.27 85.0614 17.7733 85.0614 17.22ZM89.5714 17.24C89.5714 16.86 89.4914 16.53 89.3314 16.25C89.1781 15.97 88.9747 15.7567 88.7214 15.61C88.4681 15.4633 88.1947 15.39 87.9014 15.39C87.6081 15.39 87.3347 15.4633 87.0814 15.61C86.8281 15.75 86.6214 15.96 86.4614 16.24C86.3081 16.5133 86.2314 16.84 86.2314 17.22C86.2314 17.6 86.3081 17.9333 86.4614 18.22C86.6214 18.5067 86.8281 18.7267 87.0814 18.88C87.3414 19.0267 87.6147 19.1 87.9014 19.1C88.1947 19.1 88.4681 19.0267 88.7214 18.88C88.9747 18.7333 89.1781 18.52 89.3314 18.24C89.4914 17.9533 89.5714 17.62 89.5714 17.24ZM94.4364 16.51C94.4364 15.83 94.5931 15.22 94.9064 14.68C95.2264 14.14 95.6564 13.72 96.1964 13.42C96.7431 13.1133 97.3397 12.96 97.9864 12.96C98.7264 12.96 99.3831 13.1433 99.9564 13.51C100.536 13.87 100.956 14.3833 101.216 15.05H99.8464C99.6664 14.6833 99.4164 14.41 99.0964 14.23C98.7764 14.05 98.4064 13.96 97.9864 13.96C97.5264 13.96 97.1164 14.0633 96.7564 14.27C96.3964 14.4767 96.1131 14.7733 95.9064 15.16C95.7064 15.5467 95.6064 15.9967 95.6064 16.51C95.6064 17.0233 95.7064 17.4733 95.9064 17.86C96.1131 18.2467 96.3964 18.5467 96.7564 18.76C97.1164 18.9667 97.5264 19.07 97.9864 19.07C98.4064 19.07 98.7764 18.98 99.0964 18.8C99.4164 18.62 99.6664 18.3467 99.8464 17.98H101.216C100.956 18.6467 100.536 19.16 99.9564 19.52C99.3831 19.88 98.7264 20.06 97.9864 20.06C97.3331 20.06 96.7364 19.91 96.1964 19.61C95.6564 19.3033 95.2264 18.88 94.9064 18.34C94.5931 17.8 94.4364 17.19 94.4364 16.51ZM108.541 13.05L105.931 20H104.611L101.991 13.05H103.211L105.271 18.83L107.341 13.05H108.541Z" fill="#E5E5E5" fill-opacity="0.7"/>
</svg>
