<svg width="80" height="80" viewBox="0 0 80 80" fill="none" xmlns="http://www.w3.org/2000/svg">
<circle cx="40" cy="40" r="40" fill="white"/>
<path d="M34.2512 60C37.7005 60 40.4999 57.0133 40.4999 53.3333V46.6666H34.2512C30.8019 46.6666 28.0024 49.6533 28.0024 53.3333C28.0024 57.0133 30.8019 60 34.2512 60Z" fill="#0ACF83"/>
<path d="M28.0024 40C28.0024 36.32 30.8019 33.3334 34.2512 33.3334H40.4999V46.6667H34.2512C30.8019 46.6667 28.0024 43.68 28.0024 40Z" fill="#A259FF"/>
<path d="M28.0024 26.6667C28.0024 22.9867 30.8019 20 34.2512 20H40.4999V33.3334H34.2512C30.8019 33.3334 28.0024 30.3467 28.0024 26.6667Z" fill="#F24E1E"/>
<path d="M40.5 20H46.7488C50.1981 20 52.9975 22.9867 52.9975 26.6667C52.9975 30.3467 50.1981 33.3334 46.7488 33.3334H40.5V20Z" fill="#FF7262"/>
<path d="M52.9975 40C52.9975 43.68 50.1981 46.6667 46.7488 46.6667C43.2994 46.6667 40.5 43.68 40.5 40C40.5 36.32 43.2994 33.3334 46.7488 33.3334C50.1981 33.3334 52.9975 36.32 52.9975 40Z" fill="#1ABCFE"/>
</svg>
