<svg width="146" height="142" viewBox="0 0 146 142" fill="none" xmlns="http://www.w3.org/2000/svg">
<mask id="mask0_216_24" style="mask-type:alpha" maskUnits="userSpaceOnUse" x="18" y="19" width="109" height="103">
<ellipse cx="72.6144" cy="70.7194" rx="49.5" ry="55" transform="rotate(120.901 72.6144 70.7194)" fill="#C4C4C4"/>
</mask>
<g mask="url(#mask0_216_24)">
<path d="M215.41 92.0864L81.1246 11.7145M201.694 95.5313L67.4084 15.1595M187.978 98.9763L53.6923 18.6045M174.262 102.421L39.9762 22.0494M160.546 105.866L26.2601 25.4944M146.83 109.311L12.5439 28.9394M133.113 112.756L-1.1722 32.3844M119.397 116.201L-14.8883 35.8293M105.681 119.646L-28.6045 39.2743M91.965 123.091L-42.3206 42.7193M78.2489 126.536L-56.0367 46.1642M64.5327 129.981L-69.7528 49.6092" stroke="#FDCE26" stroke-opacity="0.95" stroke-width="2"/>
</g>
</svg>
