<svg width="80" height="80" viewBox="0 0 80 80" fill="none" xmlns="http://www.w3.org/2000/svg">
<circle cx="40" cy="40" r="39.5" fill="#303652" stroke="#F7DF1E"/>
<path d="M1 1H79V79H1V1Z" fill="#F7DF1E"/>
<path d="M21.5089 66.1825L27.478 62.5701C28.6296 64.6119 29.6771 66.3394 32.1898 66.3394C34.5984 66.3394 36.1169 65.3972 36.1169 61.7324V36.8096H43.447V61.8361C43.447 69.4281 38.9968 72.8837 32.5041 72.8837C26.6403 72.8837 23.2366 69.8468 21.5088 66.1819" fill="black"/>
<path d="M47.4287 65.397L53.3971 61.9413C54.9682 64.5071 57.0102 66.3919 60.6227 66.3919C63.6599 66.3919 65.5967 64.8734 65.5967 62.779C65.5967 60.2658 63.6072 59.3756 60.2561 57.9101L58.4241 57.1241C53.1356 54.8732 49.6274 52.0458 49.6274 46.0769C49.6274 40.5792 53.816 36.3904 60.3611 36.3904C65.0211 36.3904 68.372 38.0136 70.7802 42.2547L65.0731 45.9196C63.8164 43.6684 62.4555 42.7785 60.3612 42.7785C58.2145 42.7785 56.8531 44.1397 56.8531 45.9196C56.8531 48.1187 58.2145 49.009 61.3557 50.3705L63.1881 51.1558C69.4188 53.8262 72.9269 56.5485 72.9269 62.6743C72.9269 69.2718 67.7435 72.8842 60.78 72.8842C53.9734 72.8842 49.5752 69.6382 47.4288 65.397" fill="black"/>
</svg>
