<svg width="45" height="50" viewBox="0 0 45 50" fill="none" xmlns="http://www.w3.org/2000/svg">
<g clip-path="url(#clip0_74_93)">
<path d="M8.07514 20.5132L10.8527 23.0563C11.1197 23.3007 11.4334 23.4959 11.7752 23.6302C12.117 23.7646 12.4801 23.8354 12.8429 23.8386L14.0117 23.848C14.4202 23.8515 14.8185 23.7691 15.177 23.6069C15.5354 23.4448 15.8449 23.2071 16.0823 22.9115L17.6621 20.9454C17.8215 20.7247 18.0325 20.5418 18.2808 20.4092C18.529 20.2766 18.8085 20.1975 19.1002 20.1772L21.1838 20.0312L19.8085 23.7148C19.565 24.3674 19.1264 24.9324 18.5419 25.3466C17.9574 25.7609 17.2501 26.0079 16.4992 26.0601L11.1095 26.437C9.85841 26.5244 8.67998 26.9364 7.70625 27.6268C6.73252 28.3172 6.00194 29.2588 5.59634 30.3462L5.19956 31.4089L30.9512 41.0237L36.1979 26.9712C39.0945 19.213 34.5273 10.336 25.9933 7.14973L14.0828 2.70275C13.8266 2.60709 13.5463 2.60787 13.3036 2.70494C13.0609 2.802 12.8758 2.98739 12.7888 3.22032C12.7167 3.41288 12.6952 3.62127 12.7258 3.82891L13.0932 6.33611L12.1226 6.72429C11.8823 6.82089 11.6678 6.96193 11.4914 7.13932C11.315 7.31671 11.1801 7.52698 11.0945 7.7581L7.34505 17.8005C7.17552 18.2536 7.15426 18.7511 7.28385 19.2326C7.41344 19.7141 7.68832 20.1589 8.07514 20.5132ZM14.6798 10.9314C14.9983 11.0503 15.2775 11.2523 15.4823 11.5121C15.687 11.7718 15.808 12.0774 15.83 12.3904C15.852 12.7034 15.774 13.0096 15.6059 13.2704C15.4378 13.5311 15.187 13.7347 14.8854 13.8553C14.5838 13.976 14.2448 14.0083 13.9114 13.9481C13.5779 13.888 13.265 13.7381 13.0122 13.5175C12.7593 13.2968 12.5779 13.0153 12.4908 12.7085C12.4038 12.4018 12.415 12.0835 12.5231 11.794C12.6681 11.4058 12.9767 11.0968 13.3812 10.935C13.7856 10.7732 14.2528 10.7719 14.6798 10.9314ZM31.3761 43.8509L3.03697 33.27C2.69533 33.1425 2.32162 33.1435 1.99805 33.2729C1.67448 33.4023 1.42756 33.6495 1.3116 33.9601L0.437145 36.3022C0.321185 36.6128 0.345689 36.9613 0.505267 37.2711C0.664845 37.5809 0.946425 37.8266 1.28806 37.9542L29.6272 48.535C29.9688 48.6626 30.3426 48.6616 30.6661 48.5321C30.9897 48.4027 31.2366 48.1555 31.3526 47.845L32.227 45.5029C32.343 45.1923 32.3185 44.8438 32.1589 44.534C31.9993 44.2242 31.7178 43.9784 31.3761 43.8509Z" fill="#F2F709"/>
</g>
<defs>
<clipPath id="clip0_74_93">
<rect width="33" height="40" fill="white" transform="translate(13.9912) rotate(20.4739)"/>
</clipPath>
</defs>
</svg>
