<svg width="41" height="37" viewBox="0 0 41 37" fill="none" xmlns="http://www.w3.org/2000/svg">
<g clip-path="url(#clip0_74_27)">
<path d="M20.4999 8.09375C21.3868 8.09375 22.2538 7.85641 22.9913 7.41173C23.7287 6.96705 24.3035 6.33502 24.6429 5.59555C24.9823 4.85608 25.0711 4.04239 24.8981 3.25737C24.7251 2.47235 24.298 1.75127 23.6708 1.1853C23.0437 0.619338 22.2446 0.233911 21.3748 0.0777614C20.5049 -0.0783882 19.6032 0.00175348 18.7838 0.308052C17.9644 0.61435 17.264 1.13305 16.7713 1.79855C16.2785 2.46406 16.0155 3.24648 16.0155 4.04688C16.0155 5.12017 16.488 6.14951 17.329 6.90845C18.1699 7.66739 19.3106 8.09375 20.4999 8.09375ZM34.5936 32.375H6.40615C6.06634 32.375 5.74045 32.4968 5.50017 32.7137C5.25989 32.9305 5.1249 33.2246 5.1249 33.5313V35.8438C5.1249 36.1504 5.25989 36.4445 5.50017 36.6613C5.74045 36.8782 6.06634 37 6.40615 37H34.5936C34.9335 37 35.2593 36.8782 35.4996 36.6613C35.7399 36.4445 35.8749 36.1504 35.8749 35.8438V33.5313C35.8749 33.2246 35.7399 32.9305 35.4996 32.7137C35.2593 32.4968 34.9335 32.375 34.5936 32.375ZM40.4289 13.3084L38.1459 12.158C37.5501 11.7966 36.7918 11.9802 36.361 12.4962C35.9318 13.0147 35.3492 13.4133 34.6801 13.6464C34.0111 13.8794 33.2828 13.9374 32.5789 13.8136C30.7259 13.5036 29.4686 11.9188 29.4686 10.2184C29.4686 9.96154 29.3556 9.71523 29.1544 9.53363C28.9531 9.35203 28.6802 9.25 28.3956 9.25H25.291C24.8105 9.25 24.3613 9.53907 24.2612 9.96616C24.0795 10.7449 23.6065 11.4436 22.9217 11.9451C22.2369 12.4465 21.3818 12.7202 20.4999 12.7202C19.618 12.7202 18.7629 12.4465 18.0781 11.9451C17.3933 11.4436 16.9203 10.7449 16.7386 9.96616C16.6385 9.53834 16.1925 9.25 15.7088 9.25H12.6042C12.3196 9.25 12.0467 9.35203 11.8454 9.53363C11.6442 9.71523 11.5311 9.96154 11.5311 10.2184C11.5311 12.0749 10.0097 13.7413 7.95406 13.8671C7.31534 13.9077 6.67558 13.8022 6.09409 13.5602C5.5126 13.3183 5.00819 12.9479 4.62761 12.4832C4.2048 11.9708 3.44806 11.8003 2.85869 12.1551L0.570858 13.3113C0.310925 13.4676 0.123203 13.7042 0.0429823 13.9766C-0.0372385 14.249 -0.0044326 14.5385 0.135233 14.7906L8.34724 30.0625H32.6525L40.8646 14.7877C41.0042 14.5356 41.037 14.2461 40.9568 13.9737C40.8766 13.7013 40.6889 13.4647 40.4289 13.3084Z" fill="#F2F709"/>
</g>
<defs>
<clipPath id="clip0_74_27">
<rect width="41" height="37" fill="white"/>
</clipPath>
</defs>
</svg>
