<svg width="80" height="80" viewBox="0 0 80 80" fill="none" xmlns="http://www.w3.org/2000/svg">
<circle cx="40" cy="40" r="40" fill="white"/>
<path d="M37.4457 1.02099C37.278 1.03624 36.7443 1.0896 36.2639 1.12772C25.1853 2.1264 14.8082 8.10323 8.23578 17.2896C4.57595 22.3973 2.23519 28.1912 1.35073 34.3281C1.03812 36.4703 1 37.1031 1 40.0076C1 42.9122 1.03812 43.5449 1.35073 45.6872C3.47038 60.3319 13.8933 72.6363 28.0293 77.1951C30.5607 78.0108 33.2293 78.5674 36.2639 78.9028C37.4457 79.0324 42.5543 79.0324 43.7361 78.9028C48.9742 78.3234 53.4117 77.0274 57.7883 74.7937C58.4592 74.4507 58.5889 74.3592 58.4974 74.283C58.4364 74.2372 55.5771 70.4026 52.146 65.7675L45.9091 57.3435L38.0938 45.7786C33.7935 39.4206 30.2557 34.2214 30.2252 34.2214C30.1947 34.2138 30.1642 39.352 30.149 45.6262C30.1261 56.6116 30.1185 57.0538 29.9812 57.313C29.783 57.6866 29.6305 57.839 29.3103 58.0067C29.0663 58.1287 28.8528 58.1516 27.7015 58.1516H26.3824L26.0317 57.9305C25.8029 57.7857 25.6352 57.5951 25.5208 57.374L25.3607 57.0309L25.376 41.7458L25.3988 26.453L25.6352 26.1557C25.7572 25.9956 26.0164 25.7898 26.1994 25.6907C26.512 25.5382 26.634 25.523 27.9531 25.523C29.5085 25.523 29.7677 25.584 30.1718 26.0261C30.2862 26.1481 34.5179 32.5213 39.5806 40.1982C44.6434 47.8751 51.5666 58.3574 54.9672 63.5033L61.1431 72.8574L61.4557 72.6515C64.2235 70.8524 67.1513 68.2909 69.4692 65.6226C74.4023 59.9584 77.5818 53.0515 78.6493 45.6872C78.9619 43.5449 79 42.9122 79 40.0076C79 37.1031 78.9619 36.4703 78.6493 34.3281C76.5296 19.6834 66.1067 7.379 51.9707 2.82014C49.4774 2.01205 46.824 1.45553 43.8504 1.1201C43.1185 1.04386 38.0786 0.960002 37.4457 1.02099ZM53.4117 24.6081C53.7777 24.7911 54.0751 25.1418 54.1818 25.5077C54.2428 25.7059 54.2581 29.9446 54.2428 39.4969L54.2199 53.2039L51.8029 49.4989L49.3783 45.7939V35.8299C49.3783 29.3881 49.4088 25.7669 49.4545 25.5916C49.5765 25.1647 49.8434 24.8292 50.2094 24.631C50.522 24.4709 50.6364 24.4557 51.8334 24.4557C52.9619 24.4557 53.1601 24.4709 53.4117 24.6081Z" fill="black"/>
</svg>
