<svg width="80" height="80" viewBox="0 0 80 80" fill="none" xmlns="http://www.w3.org/2000/svg">
<circle cx="40" cy="40" r="40" fill="black"/>
<path d="M11.1738 39.4424C11.1738 43.87 15.498 48.0034 22.3154 50.3332C20.954 57.1858 22.0714 62.709 25.8036 64.8611C29.6399 67.0731 35.3551 65.5419 40.7796 60.801C46.0672 65.3505 51.4113 67.141 55.14 64.9828C58.9726 62.7644 60.1384 56.8666 58.7393 49.8001C65.84 47.4528 69.8119 43.9283 69.8119 39.4424C69.8119 35.1174 65.4798 31.3756 58.7543 29.0607C60.2604 21.7022 58.9842 16.3131 55.0975 14.072C51.3504 11.9116 45.9443 13.7946 40.5789 18.4633C34.9971 13.5079 29.6443 11.9949 25.7614 14.2425C22.0179 16.4091 20.9496 22.0326 22.3154 29.0121C15.7282 31.3084 11.1738 35.1347 11.1738 39.4424Z" fill="black"/>
<path d="M57.33 31.3597C56.7898 31.1738 56.23 30.9979 55.6537 30.8315C55.7484 30.445 55.8353 30.0634 55.9127 29.6883C57.1816 23.5294 56.3519 18.5677 53.5187 16.9341C50.802 15.3677 46.3591 17.001 41.8719 20.9054C41.4405 21.2809 41.0078 21.6784 40.5752 22.095C40.2871 21.8193 39.9993 21.553 39.7124 21.2982C35.0097 17.1233 30.296 15.3639 27.4656 17.0023C24.7515 18.5732 23.9477 23.2376 25.09 29.0745C25.2003 29.6383 25.3292 30.214 25.475 30.7994C24.8079 30.9887 24.1639 31.1906 23.5476 31.4053C18.0343 33.3272 14.5132 36.3394 14.5132 39.4637C14.5132 42.6906 18.2931 45.9272 24.0357 47.8897C24.4889 48.0446 24.9591 48.191 25.4437 48.33C25.2864 48.9631 25.1496 49.5835 25.0347 50.1886C23.9456 55.9242 24.7961 60.4784 27.503 62.0395C30.299 63.6515 34.9913 61.9945 39.5605 58.0011C39.9217 57.6854 40.2841 57.3506 40.6472 56.9998C41.1178 57.4529 41.5877 57.8817 42.055 58.2839C46.4808 62.0919 50.852 63.6296 53.5564 62.0642C56.3495 60.4475 57.2573 55.5551 56.0788 49.6028C55.9888 49.1482 55.884 48.6838 55.7664 48.2111C56.0959 48.1137 56.4194 48.0131 56.7349 47.9086C62.7048 45.9309 66.5891 42.7337 66.5891 39.4637C66.5891 36.328 62.9545 33.2956 57.33 31.3597Z" fill="#53C1DE"/>
<path d="M56.0352 45.7972C55.7505 45.8915 55.4583 45.9826 55.1606 46.0709C54.5015 43.9848 53.612 41.7664 52.5235 39.4745C53.5622 37.2372 54.4173 35.0473 55.058 32.9747C55.5907 33.1288 56.1077 33.2913 56.606 33.4629C61.425 35.1216 64.3645 37.574 64.3645 39.4637C64.3645 41.4765 61.1899 44.0895 56.0352 45.7972ZM53.8964 50.0348C54.4175 52.6668 54.492 55.0465 54.1468 56.9068C53.8366 58.5784 53.2129 59.6928 52.4417 60.1392C50.8005 61.089 47.2909 59.8544 43.5059 56.5978C43.072 56.2245 42.635 55.8258 42.1965 55.4039C43.6639 53.7994 45.1304 51.934 46.5617 49.8623C49.0792 49.6389 51.4576 49.2738 53.6145 48.7752C53.7208 49.2037 53.8151 49.6239 53.8964 50.0348ZM32.2671 59.9751C30.6637 60.5412 29.3866 60.5575 28.6146 60.1124C26.972 59.1651 26.2891 55.5085 27.2206 50.6035C27.3273 50.0417 27.4543 49.4647 27.6007 48.8749C29.7339 49.3465 32.0949 49.6859 34.6185 49.8905C36.0594 51.9177 37.5683 53.781 39.0888 55.4126C38.7566 55.7332 38.4257 56.0385 38.0966 56.3262C36.0762 58.0921 34.0514 59.3449 32.2671 59.9751ZM24.7552 45.7849C22.2159 44.9171 20.1189 43.7893 18.6815 42.5586C17.3899 41.4526 16.7378 40.3546 16.7378 39.4637C16.7378 37.5677 19.5649 35.1494 24.28 33.5057C24.8521 33.3063 25.451 33.1183 26.0725 32.9418C26.7241 35.0612 27.579 37.2771 28.6106 39.5178C27.5656 41.7918 26.6986 44.0431 26.0406 46.1873C25.5975 46.06 25.1683 45.926 24.7552 45.7849ZM27.2733 28.6473C26.2946 23.6464 26.9446 19.874 28.5802 18.9273C30.3224 17.9189 34.1748 19.3567 38.2352 22.9615C38.4948 23.1919 38.7553 23.4331 39.0166 23.6826C37.5036 25.307 36.0085 27.1563 34.5804 29.1716C32.1312 29.3986 29.7868 29.7632 27.6312 30.2514C27.4957 29.7064 27.3757 29.1708 27.2733 28.6473ZM49.7365 34.1932C49.2212 33.3033 48.6922 32.4344 48.1529 31.5893C49.8144 31.7993 51.4064 32.0781 52.9013 32.4192C52.4525 33.8574 51.8931 35.3612 51.2346 36.9027C50.7622 36.0061 50.2626 35.102 49.7365 34.1932ZM40.576 25.2722C41.6022 26.3838 42.6298 27.6247 43.6405 28.9712C42.622 28.9231 41.5908 28.8981 40.5512 28.8981C39.5213 28.8981 38.4978 28.9226 37.4856 28.9698C38.4974 27.6359 39.5339 26.3965 40.576 25.2722ZM31.3569 34.2086C30.8422 35.101 30.3518 36.0002 29.8869 36.9011C29.239 35.3649 28.6848 33.8543 28.2321 32.3957C29.7179 32.0632 31.3023 31.7914 32.9533 31.5854C32.4064 32.4383 31.873 33.3136 31.3569 34.2084V34.2086ZM33.0009 47.5007C31.2951 47.3104 29.6868 47.0526 28.2014 46.7293C28.6614 45.2447 29.2278 43.7018 29.8894 42.1325C30.3555 43.0327 30.8478 43.9323 31.3657 44.8267H31.3658C31.8933 45.7378 32.4399 46.6303 33.0009 47.5007ZM40.6376 53.812C39.5832 52.6745 38.5315 51.4163 37.5043 50.0629C38.5014 50.102 39.518 50.122 40.5512 50.122C41.6126 50.122 42.6619 50.0981 43.6947 50.0521C42.6807 51.4299 41.6568 52.6901 40.6376 53.812ZM51.2558 42.0525C51.9519 43.6388 52.5386 45.1736 53.0045 46.6329C51.4946 46.9773 49.8644 47.2547 48.1468 47.4608C48.6873 46.6043 49.221 45.7205 49.7454 44.8114C50.2759 43.8916 50.7796 42.9705 51.2558 42.0525ZM47.8183 43.7001C47.0043 45.1114 46.1686 46.4586 45.3201 47.7303C43.7748 47.8407 42.1783 47.8976 40.5512 47.8976C38.9306 47.8976 37.3542 47.8473 35.8363 47.7488C34.9536 46.4604 34.0997 45.1093 33.2909 43.7123H33.2911C32.4844 42.3191 31.7419 40.9141 31.0691 39.5171C31.7417 38.1168 32.4822 36.7102 33.2843 35.3196L33.2841 35.3198C34.0883 33.9255 34.9347 32.5809 35.8092 31.3006C37.358 31.1835 38.9461 31.1224 40.5511 31.1224H40.5512C42.1634 31.1224 43.7536 31.184 45.3019 31.302C46.163 32.573 47.0036 33.9132 47.811 35.3078C48.6276 36.718 49.3776 38.1152 50.056 39.4855C49.3797 40.8793 48.6313 42.2906 47.8183 43.7001ZM52.4075 18.8611C54.1514 19.8666 54.8296 23.9218 53.7339 29.2393C53.664 29.5786 53.5853 29.9243 53.4999 30.2745C51.3393 29.7761 48.9932 29.4051 46.5369 29.1747C45.106 27.1373 43.6232 25.2851 42.1348 23.6816C42.5349 23.2967 42.9345 22.9296 43.3325 22.5833C47.1771 19.238 50.7704 17.9172 52.4075 18.8611Z" fill="black"/>
<path d="M40.5511 34.8142C43.1193 34.8142 45.2013 36.8958 45.2013 39.4637C45.2013 42.0315 43.1193 44.1132 40.5511 44.1132C37.9829 44.1132 35.9009 42.0315 35.9009 39.4637C35.9009 36.8958 37.9829 34.8142 40.5511 34.8142Z" fill="#53C1DE"/>
<path d="M11.1738 39.4424C11.1738 43.87 15.498 48.0034 22.3154 50.3332C20.954 57.1858 22.0714 62.709 25.8036 64.8611C29.6399 67.0731 35.3551 65.5419 40.7796 60.801C46.0672 65.3505 51.4113 67.141 55.14 64.9828C58.9726 62.7644 60.1384 56.8666 58.7393 49.8001C65.84 47.4528 69.8119 43.9283 69.8119 39.4424C69.8119 35.1174 65.4798 31.3756 58.7543 29.0607C60.2604 21.7022 58.9842 16.3131 55.0975 14.072C51.3504 11.9116 45.9443 13.7946 40.5789 18.4633C34.9971 13.5079 29.6443 11.9949 25.7614 14.2425C22.0179 16.4091 20.9496 22.0326 22.3154 29.0121C15.7282 31.3084 11.1738 35.1347 11.1738 39.4424Z" fill="black"/>
<path d="M57.33 31.3597C56.7898 31.1738 56.23 30.9979 55.6537 30.8315C55.7484 30.445 55.8353 30.0634 55.9127 29.6883C57.1816 23.5294 56.3519 18.5677 53.5187 16.9341C50.802 15.3677 46.3591 17.001 41.8719 20.9054C41.4405 21.2809 41.0078 21.6784 40.5752 22.095C40.2871 21.8193 39.9993 21.553 39.7124 21.2982C35.0097 17.1233 30.296 15.3639 27.4656 17.0023C24.7515 18.5732 23.9477 23.2376 25.09 29.0745C25.2003 29.6383 25.3292 30.214 25.475 30.7994C24.8079 30.9887 24.1639 31.1906 23.5476 31.4053C18.0343 33.3272 14.5132 36.3394 14.5132 39.4637C14.5132 42.6906 18.2931 45.9272 24.0357 47.8897C24.4889 48.0446 24.9591 48.191 25.4437 48.33C25.2864 48.9631 25.1496 49.5835 25.0347 50.1886C23.9456 55.9242 24.7961 60.4784 27.503 62.0395C30.299 63.6515 34.9913 61.9945 39.5605 58.0011C39.9217 57.6854 40.2841 57.3506 40.6472 56.9998C41.1178 57.4529 41.5877 57.8817 42.055 58.2839C46.4808 62.0919 50.852 63.6296 53.5564 62.0642C56.3495 60.4475 57.2573 55.5551 56.0788 49.6028C55.9888 49.1482 55.884 48.6838 55.7664 48.2111C56.0959 48.1137 56.4194 48.0131 56.7349 47.9086C62.7048 45.9309 66.5891 42.7337 66.5891 39.4637C66.5891 36.328 62.9545 33.2956 57.33 31.3597Z" fill="#53C1DE"/>
<path d="M56.0352 45.7972C55.7505 45.8915 55.4583 45.9826 55.1606 46.0709C54.5015 43.9848 53.612 41.7664 52.5235 39.4745C53.5622 37.2372 54.4173 35.0473 55.058 32.9747C55.5907 33.1288 56.1077 33.2913 56.606 33.4629C61.425 35.1216 64.3645 37.574 64.3645 39.4637C64.3645 41.4765 61.1899 44.0895 56.0352 45.7972ZM53.8964 50.0348C54.4175 52.6668 54.492 55.0465 54.1468 56.9068C53.8366 58.5784 53.2129 59.6928 52.4417 60.1392C50.8005 61.089 47.2909 59.8544 43.5059 56.5978C43.072 56.2245 42.635 55.8258 42.1965 55.4039C43.6639 53.7994 45.1304 51.934 46.5617 49.8623C49.0792 49.6389 51.4576 49.2738 53.6145 48.7752C53.7208 49.2037 53.8151 49.6239 53.8964 50.0348ZM32.2671 59.9751C30.6637 60.5412 29.3866 60.5575 28.6146 60.1124C26.972 59.1651 26.2891 55.5085 27.2206 50.6035C27.3273 50.0417 27.4543 49.4647 27.6007 48.8749C29.7339 49.3465 32.0949 49.6859 34.6185 49.8905C36.0594 51.9177 37.5683 53.781 39.0888 55.4126C38.7566 55.7332 38.4257 56.0385 38.0966 56.3262C36.0762 58.0921 34.0514 59.3449 32.2671 59.9751ZM24.7552 45.7849C22.2159 44.9171 20.1189 43.7893 18.6815 42.5586C17.3899 41.4526 16.7378 40.3546 16.7378 39.4637C16.7378 37.5677 19.5649 35.1494 24.28 33.5057C24.8521 33.3063 25.451 33.1183 26.0725 32.9418C26.7241 35.0612 27.579 37.2771 28.6106 39.5178C27.5656 41.7918 26.6986 44.0431 26.0406 46.1873C25.5975 46.06 25.1683 45.926 24.7552 45.7849ZM27.2733 28.6473C26.2946 23.6464 26.9446 19.874 28.5802 18.9273C30.3224 17.9189 34.1748 19.3567 38.2352 22.9615C38.4948 23.1919 38.7553 23.4331 39.0166 23.6826C37.5036 25.307 36.0085 27.1563 34.5804 29.1716C32.1312 29.3986 29.7868 29.7632 27.6312 30.2514C27.4957 29.7064 27.3757 29.1708 27.2733 28.6473ZM49.7365 34.1932C49.2212 33.3033 48.6922 32.4344 48.1529 31.5893C49.8144 31.7993 51.4064 32.0781 52.9013 32.4192C52.4525 33.8574 51.8931 35.3612 51.2346 36.9027C50.7622 36.0061 50.2626 35.102 49.7365 34.1932ZM40.576 25.2722C41.6022 26.3838 42.6298 27.6247 43.6405 28.9712C42.622 28.9231 41.5908 28.8981 40.5512 28.8981C39.5213 28.8981 38.4978 28.9226 37.4856 28.9698C38.4974 27.6359 39.5339 26.3965 40.576 25.2722ZM31.3569 34.2086C30.8422 35.101 30.3518 36.0002 29.8869 36.9011C29.239 35.3649 28.6848 33.8543 28.2321 32.3957C29.7179 32.0632 31.3023 31.7914 32.9533 31.5854C32.4064 32.4383 31.873 33.3136 31.3569 34.2084V34.2086ZM33.0009 47.5007C31.2951 47.3104 29.6868 47.0526 28.2014 46.7293C28.6614 45.2447 29.2278 43.7018 29.8894 42.1325C30.3555 43.0327 30.8478 43.9323 31.3657 44.8267H31.3658C31.8933 45.7378 32.4399 46.6303 33.0009 47.5007ZM40.6376 53.812C39.5832 52.6745 38.5315 51.4163 37.5043 50.0629C38.5014 50.102 39.518 50.122 40.5512 50.122C41.6126 50.122 42.6619 50.0981 43.6947 50.0521C42.6807 51.4299 41.6568 52.6901 40.6376 53.812ZM51.2558 42.0525C51.9519 43.6388 52.5386 45.1736 53.0045 46.6329C51.4946 46.9773 49.8644 47.2547 48.1468 47.4608C48.6873 46.6043 49.221 45.7205 49.7454 44.8114C50.2759 43.8916 50.7796 42.9705 51.2558 42.0525ZM47.8183 43.7001C47.0043 45.1114 46.1686 46.4586 45.3201 47.7303C43.7748 47.8407 42.1783 47.8976 40.5512 47.8976C38.9306 47.8976 37.3542 47.8473 35.8363 47.7488C34.9536 46.4604 34.0997 45.1093 33.2909 43.7123H33.2911C32.4844 42.3191 31.7419 40.9141 31.0691 39.5171C31.7417 38.1168 32.4822 36.7102 33.2843 35.3196L33.2841 35.3198C34.0883 33.9255 34.9347 32.5809 35.8092 31.3006C37.358 31.1835 38.9461 31.1224 40.5511 31.1224H40.5512C42.1634 31.1224 43.7536 31.184 45.3019 31.302C46.163 32.573 47.0036 33.9132 47.811 35.3078C48.6276 36.718 49.3776 38.1152 50.056 39.4855C49.3797 40.8793 48.6313 42.2906 47.8183 43.7001ZM52.4075 18.8611C54.1514 19.8666 54.8296 23.9218 53.7339 29.2393C53.664 29.5786 53.5853 29.9243 53.4999 30.2745C51.3393 29.7761 48.9932 29.4051 46.5369 29.1747C45.106 27.1373 43.6232 25.2851 42.1348 23.6816C42.5349 23.2967 42.9345 22.9296 43.3325 22.5833C47.1771 19.238 50.7704 17.9172 52.4075 18.8611Z" fill="black"/>
<path d="M40.5511 34.8142C43.1193 34.8142 45.2013 36.8958 45.2013 39.4637C45.2013 42.0315 43.1193 44.1132 40.5511 44.1132C37.9829 44.1132 35.9009 42.0315 35.9009 39.4637C35.9009 36.8958 37.9829 34.8142 40.5511 34.8142Z" fill="#53C1DE"/>
</svg>
