<svg width="80" height="80" viewBox="0 0 80 80" fill="none" xmlns="http://www.w3.org/2000/svg">
<circle cx="40" cy="40" r="40" fill="white"/>
<path d="M57.1632 42.7214C55.4585 42.7301 53.9769 43.1323 52.7362 43.7269C52.2811 42.8438 51.8259 42.0569 51.7455 41.4799C51.6563 40.8066 51.5492 40.3957 51.6563 39.5913C51.7634 38.787 52.2454 37.6416 52.2364 37.5542C52.2275 37.4667 52.1293 37.0558 51.1475 37.0471C50.1658 37.0383 49.3178 37.2307 49.2197 37.4842C49.1215 37.7378 48.9341 38.3148 48.8091 38.9094C48.6395 39.7837 46.8455 42.905 45.8191 44.54C45.4889 43.9017 45.2033 43.3422 45.1408 42.8963C45.0515 42.223 44.9444 41.8121 45.0515 41.0077C45.1587 40.2034 45.6406 39.058 45.6317 38.9706C45.6228 38.8831 45.5246 38.4722 44.5428 38.4635C43.561 38.4547 42.7131 38.6471 42.6149 38.9006C42.5168 39.1542 42.4097 39.7487 42.2044 40.3258C41.9991 40.9028 39.616 46.1137 38.9913 47.4602C38.6699 48.1509 38.3933 48.7017 38.1969 49.0777C38.1969 49.0777 38.188 49.1039 38.1612 49.1476C37.9916 49.4711 37.8934 49.646 37.8934 49.646C37.8934 49.646 37.8934 49.646 37.8934 49.6547C37.7596 49.8908 37.6168 50.1094 37.5454 50.1094C37.4918 50.1094 37.3936 49.4799 37.5632 48.623C37.9202 46.8132 38.7681 43.9979 38.7592 43.9017C38.7592 43.8493 38.9199 43.3596 38.2058 43.1061C37.5097 42.8525 37.2597 43.2722 37.1973 43.2722C37.1348 43.2722 37.0902 43.4208 37.0902 43.4208C37.0902 43.4208 37.8667 40.2558 35.6086 40.2558C34.1984 40.2558 32.2526 41.7684 31.2887 43.1323C30.6818 43.4558 29.3876 44.1465 28.0042 44.8897C27.4776 45.1782 26.9332 45.4667 26.4244 45.7378C26.3887 45.7028 26.353 45.6591 26.3173 45.6241C23.5862 42.7651 18.5344 40.7454 18.7486 36.9072C18.829 35.5083 19.3199 31.8361 28.4505 27.3771C35.9656 23.7487 41.9455 24.7542 42.9809 26.9837C44.4625 30.1662 39.7767 36.0766 32.0117 36.9334C29.0484 37.2569 27.4954 36.1378 27.1027 35.7181C26.6922 35.281 26.6297 35.2547 26.478 35.3422C26.2281 35.4733 26.3887 35.8667 26.478 36.0941C26.71 36.6886 27.665 37.7378 29.2805 38.2536C30.7086 38.7083 34.1805 38.9618 38.3843 37.3706C43.088 35.587 46.7652 30.6296 45.6852 26.4766C44.6053 22.2624 37.465 20.8722 30.7086 23.2241C26.6922 24.623 22.3366 26.8263 19.2038 29.6941C15.482 33.1039 14.8929 36.0678 15.1339 37.3094C15.9996 41.7159 22.2027 44.5837 24.684 46.7083C24.559 46.7782 24.443 46.8394 24.3448 46.8919C23.1042 47.4952 18.3738 49.917 17.1956 52.4788C15.8568 55.3815 17.4098 57.4624 18.4362 57.7422C21.6226 58.6077 24.8982 57.0514 26.6565 54.4809C28.4148 51.9105 28.2005 48.5706 27.3883 47.0405C27.3794 47.023 27.3705 47.0055 27.3526 46.9881C27.674 46.8044 28.0042 46.6121 28.3255 46.4285C28.9592 46.0613 29.584 45.7203 30.1195 45.4405C29.816 46.2536 29.5929 47.2241 29.4858 48.623C29.3519 50.2667 30.0392 52.4001 30.9406 53.2394C31.3423 53.6066 31.8153 53.6154 32.1188 53.6154C33.1719 53.6154 33.645 52.7585 34.1716 51.7443C34.8142 50.5028 35.3944 49.0602 35.3944 49.0602C35.3944 49.0602 34.6714 52.9596 36.635 52.9596C37.349 52.9596 38.0719 52.0504 38.3933 51.587V51.5957C38.3933 51.5957 38.4111 51.5695 38.4468 51.5083C38.5182 51.3946 38.5628 51.3247 38.5628 51.3247V51.3072C38.8484 50.8176 39.4911 49.7072 40.4461 47.8624C41.6778 45.4842 42.8648 42.5116 42.8648 42.5116C42.8648 42.5116 42.9719 43.2372 43.3379 44.4438C43.5521 45.152 43.9984 45.9301 44.3554 46.682C44.0698 47.0755 43.8913 47.2941 43.8913 47.2941C43.8913 47.2941 43.8913 47.2941 43.9002 47.3028C43.6681 47.6001 43.4182 47.9236 43.1415 48.2383C42.1687 49.3749 41.0084 50.6777 40.8477 51.0536C40.6603 51.4995 40.7049 51.823 41.0619 52.0853C41.3208 52.2777 41.7849 52.3039 42.2579 52.2777C43.1326 52.2165 43.7484 52.0066 44.0519 51.8755C44.525 51.7094 45.0783 51.4558 45.596 51.0799C46.551 50.3891 47.1311 49.4012 47.0776 48.0984C47.0508 47.3815 46.8098 46.6646 46.5153 45.9913C46.6046 45.8689 46.6849 45.7465 46.7741 45.6241C48.2825 43.4646 49.4517 41.0952 49.4517 41.0952C49.4517 41.0952 49.5588 41.8208 49.9248 43.0274C50.1033 43.6394 50.4692 44.3039 50.7905 44.9509C49.3714 46.0788 48.4967 47.3902 48.1843 48.2471C47.622 49.8383 48.0594 50.5553 48.8894 50.7214C49.2643 50.8001 49.7998 50.6252 50.1925 50.4591C50.6923 50.3017 51.2814 50.0307 51.8437 49.6285C52.7987 48.9378 53.718 47.976 53.6645 46.6733C53.6377 46.0788 53.477 45.493 53.2539 44.9247C54.4588 44.4351 56.0118 44.164 57.9933 44.3913C62.2417 44.881 63.0807 47.4777 62.92 48.5706C62.7594 49.6635 61.8668 50.258 61.5723 50.4416C61.2778 50.6252 61.1796 50.6864 61.2064 50.8176C61.2421 51.0099 61.3849 51.0012 61.6348 50.9662C61.9829 50.905 63.8661 50.0831 63.9464 48.0722C64.0803 45.5017 61.5812 42.6952 57.1632 42.7214ZM24.3894 53.5454C22.9792 55.0493 21.0157 55.6176 20.1678 55.1367C19.2574 54.6208 19.6144 52.4001 21.3459 50.8088C22.3991 49.8383 23.7557 48.9378 24.6572 48.387C24.8625 48.2646 25.1659 48.0897 25.5319 47.8711C25.5944 47.8361 25.6301 47.8187 25.6301 47.8187C25.7015 47.7749 25.7729 47.7312 25.8443 47.6875C26.478 49.9607 25.871 51.9629 24.3894 53.5454ZM34.6535 46.7083C34.1627 47.8799 33.1362 50.8788 32.5115 50.7126C31.976 50.5728 31.6457 48.2995 32.4044 46.0525C32.7882 44.9247 33.6004 43.5782 34.0734 43.0536C34.841 42.2143 35.6889 41.9345 35.8942 42.2755C36.153 42.7214 34.957 45.9739 34.6535 46.7083ZM43.1237 50.6777C42.9184 50.7826 42.722 50.8525 42.6328 50.8001C42.5703 50.7651 42.722 50.6252 42.722 50.6252C42.722 50.6252 43.7842 49.5061 44.2036 48.999C44.4446 48.7017 44.7302 48.352 45.0337 47.9585V48.0722C45.0337 49.4099 43.7127 50.3105 43.1237 50.6777ZM49.657 49.2176C49.5053 49.1126 49.5321 48.7629 50.0408 47.67C50.2372 47.2416 50.7013 46.5247 51.4956 45.834C51.5849 46.1137 51.6474 46.3848 51.6384 46.6383C51.6295 48.3258 50.3978 48.9553 49.657 49.2176Z" fill="#CD6799"/>
</svg>
