<svg width="80" height="80" viewBox="0 0 80 80" fill="none" xmlns="http://www.w3.org/2000/svg">
<circle cx="40" cy="40" r="40" fill="white"/>
<path d="M40 21C33.0667 21 28.7333 25.2113 27 33.6338C29.6 29.4225 32.6333 27.8433 36.1 28.8961C38.0779 29.4968 39.4917 31.2399 41.0565 33.1695C43.6056 36.3127 46.5559 39.9506 53 39.9506C59.9333 39.9506 64.2667 35.7394 66 27.3169C63.4 31.5281 60.3667 33.1074 56.9 32.0545C54.9221 31.4539 53.5084 29.7107 51.9435 27.7812C49.3944 24.6379 46.4441 21 40 21ZM27 39.9506C20.0667 39.9506 15.7333 44.1619 14 52.5844C16.6 48.3732 19.6333 46.7939 23.1 47.8468C25.0779 48.4474 26.4917 50.1905 28.0565 52.1201C30.6056 55.2634 33.5559 58.9013 40 58.9013C46.9333 58.9013 51.2667 54.69 53 46.2675C50.4 50.4788 47.3667 52.058 43.9 51.0052C41.9221 50.4045 40.5083 48.6614 38.9435 46.7318C36.3944 43.5886 33.4441 39.9506 27 39.9506Z" fill="url(#paint0_linear_101_14)"/>
<defs>
<linearGradient id="paint0_linear_101_14" x1="12.5556" y1="33.1284" x2="61.394" y2="56.3087" gradientUnits="userSpaceOnUse">
<stop stop-color="#2298BD"/>
<stop offset="1" stop-color="#0ED7B5"/>
</linearGradient>
</defs>
</svg>
